<svg width="120" height="120" viewBox="0 0 120 120" fill="none" xmlns="http://www.w3.org/2000/svg">
  <defs>
    <linearGradient id="surfGrad" x1="0" y1="0" x2="1" y2="1">
      <stop offset="0%" stop-color="#22c55e"/>
      <stop offset="100%" stop-color="#2563eb"/>
    </linearGradient>
    <filter id="shadow" x="-20%" y="-20%" width="140%" height="140%">
      <feDropShadow dx="0" dy="8" stdDeviation="12" flood-color="#000000" flood-opacity="0.18"/>
    </filter>
  </defs>
  <circle cx="60" cy="60" r="52" fill="url(#surfGrad)" filter="url(#shadow)"/>
  <path d="M24 68C34 46 50 42 66 42C82 42 92 50 96 64C100 78 86 86 74 86C64 86 52 80 42 70C36 64 28 68 24 68Z" fill="#ffffff" opacity="0.14"/>
  <path d="M28 70C38 55 54 52 68 52C82 52 92 60 94 72C96 84 84 90 72 90C60 90 44 86 34 76C30 72 26 70 28 70Z" fill="#ffffff" opacity="0.22"/>
  <path d="M36 60C44 52 54 49 64 49C74 49 82 54 86 62" stroke="#ffffff" stroke-width="6" stroke-linecap="round" stroke-linejoin="round"/>
  <path d="M36 72C44 66 54 63 64 63C74 63 82 66 88 74" stroke="#ffffff" stroke-width="6" stroke-linecap="round" stroke-linejoin="round"/>
  <path d="M42 48C52 38 68 36 78 44" stroke="#ffffff" stroke-width="5" stroke-linecap="round"/>
  <path d="M36 76L48 64L64 74L84 56" stroke="#ffffff" stroke-width="5" stroke-linecap="round" stroke-linejoin="round"/>
</svg>
